<svg width="184" height="56" viewBox="0 0 184 56" fill="none" xmlns="http://www.w3.org/2000/svg">
<path d="M103.2 53H97.7V46H103.2V47.6H99.6V48.65H103V50.25H99.6V51.4H103.2V53ZM104.199 49.7H107.799V51.1H104.199V49.7ZM107.559 47.6V46H113.859V47.6H111.659V53H109.759V47.6H107.559ZM117.698 53.15C116.638 53.15 115.771 52.8133 115.098 52.14C114.431 51.46 114.098 50.58 114.098 49.5C114.098 48.4333 114.428 47.56 115.088 46.88C115.748 46.1933 116.618 45.85 117.698 45.85C118.764 45.85 119.631 46.1867 120.298 46.86C120.964 47.5267 121.298 48.4067 121.298 49.5C121.298 50.5667 120.968 51.4433 120.308 52.13C119.654 52.81 118.784 53.15 117.698 53.15ZM115.998 49.5C115.998 50.0733 116.141 50.56 116.428 50.96C116.714 51.3533 117.138 51.55 117.698 51.55C118.258 51.55 118.681 51.3567 118.968 50.97C119.254 50.5833 119.398 50.0933 119.398 49.5C119.398 48.9133 119.258 48.4267 118.978 48.04C118.698 47.6467 118.271 47.45 117.698 47.45C117.138 47.45 116.714 47.6433 116.428 48.03C116.141 48.4167 115.998 48.9067 115.998 49.5ZM122.259 46H124.159V50.35C124.159 50.71 124.269 51 124.489 51.22C124.709 51.44 124.999 51.55 125.359 51.55C125.719 51.55 126.009 51.4433 126.229 51.23C126.449 51.01 126.559 50.7167 126.559 50.35V46H128.459V50.35C128.459 51.1833 128.156 51.86 127.549 52.38C126.949 52.8933 126.219 53.15 125.359 53.15C124.519 53.15 123.792 52.8933 123.179 52.38C122.566 51.86 122.259 51.1833 122.259 50.35V46ZM129.79 53V46H133.79C134.49 46 135.08 46.21 135.56 46.63C136.047 47.0433 136.29 47.6 136.29 48.3C136.29 48.9133 136.093 49.43 135.7 49.85C135.307 50.2633 134.797 50.5067 134.17 50.58L136.59 53H134.14L131.84 50.6H131.69V53H129.79ZM131.69 47.6V49.1H133.69C133.917 49.1 134.09 49.0333 134.21 48.9C134.33 48.76 134.39 48.5767 134.39 48.35C134.39 47.85 134.157 47.6 133.69 47.6H131.69ZM137.407 46H139.607L141.057 48.26C141.337 48.7067 141.584 49.1267 141.797 49.52C141.917 49.7467 142 49.91 142.047 50.01C142.067 50.0433 142.097 50.1133 142.137 50.22C142.184 50.32 142.22 50.3967 142.247 50.45H142.287L142.257 49.97C142.23 49.49 142.217 49.1267 142.217 48.88C142.21 48.74 142.207 48.4967 142.207 48.15V46H144.107V53H141.907L140.457 50.74C140.057 50.12 139.73 49.5367 139.477 48.99C139.384 48.79 139.314 48.6433 139.267 48.55H139.227C139.234 48.6033 139.24 48.6833 139.247 48.79C139.26 48.8967 139.267 48.9733 139.267 49.02C139.274 49.0733 139.277 49.1567 139.277 49.27C139.284 49.3833 139.287 49.47 139.287 49.53C139.294 49.59 139.297 49.6867 139.297 49.82C139.304 49.9533 139.307 50.0533 139.307 50.12V53H137.407V46ZM144.713 53L147.563 46H149.463L152.313 53H150.363L149.873 51.75H147.153L146.663 53H144.713ZM147.903 49.81L147.773 50.15H149.253L149.123 49.81C149.056 49.6433 148.946 49.32 148.793 48.84C148.759 48.74 148.673 48.46 148.533 48H148.493C148.353 48.46 148.266 48.74 148.233 48.84C148.079 49.32 147.969 49.6433 147.903 49.81ZM152.925 53V46H155.225L156.085 47.81C156.158 47.9567 156.238 48.1333 156.325 48.34C156.418 48.5533 156.488 48.71 156.535 48.81C156.561 48.8633 156.595 48.9467 156.635 49.06C156.675 49.1733 156.705 49.2533 156.725 49.3C156.758 49.38 156.825 49.5633 156.925 49.85C156.985 49.67 157.055 49.4867 157.135 49.3C157.181 49.1867 157.245 49.0233 157.325 48.81C157.438 48.5167 157.585 48.1833 157.765 47.81L158.625 46H160.925V53H159.025V50.8C159.025 50.3667 159.038 49.9933 159.065 49.68C159.091 49.34 159.121 48.98 159.155 48.6H159.115C159.001 48.9067 158.865 49.2633 158.705 49.67C158.545 50.05 158.378 50.3967 158.205 50.71L156.925 53L155.645 50.71C155.325 50.13 155.021 49.4267 154.735 48.6H154.695C154.728 48.98 154.758 49.34 154.785 49.68C154.811 49.9933 154.825 50.3667 154.825 50.8V53H152.925ZM167.829 53H162.329V46H167.829V47.6H164.229V48.65H167.629V50.25H164.229V51.4H167.829V53ZM169.018 46H171.218L172.668 48.26C172.948 48.7067 173.195 49.1267 173.408 49.52C173.528 49.7467 173.612 49.91 173.658 50.01C173.678 50.0433 173.708 50.1133 173.748 50.22C173.795 50.32 173.832 50.3967 173.858 50.45H173.898L173.868 49.97C173.842 49.49 173.828 49.1267 173.828 48.88C173.822 48.74 173.818 48.4967 173.818 48.15V46H175.718V53H173.518L172.068 50.74C171.668 50.12 171.342 49.5367 171.088 48.99C170.995 48.79 170.925 48.6433 170.878 48.55H170.838C170.845 48.6033 170.852 48.6833 170.858 48.79C170.872 48.8967 170.878 48.9733 170.878 49.02C170.885 49.0733 170.888 49.1567 170.888 49.27C170.895 49.3833 170.898 49.47 170.898 49.53C170.905 49.59 170.908 49.6867 170.908 49.82C170.915 49.9533 170.918 50.0533 170.918 50.12V53H169.018V46ZM176.514 47.6V46H182.814V47.6H180.614V53H178.714V47.6H176.514Z" fill="white"/>
<path d="M95.7686 55.3916H53.041L47.9434 46.3994L42.5801 55.3916H0L31.5303 0H63.9434L95.7686 55.3916ZM26.2852 28.0625L15.7354 46.2227L36.9814 45.8701L42.2559 36.79H31.9131L37.0107 28.0625H26.2852ZM63.6787 36.79H53.3359L58.6104 45.8701L79.8564 46.2227L69.3066 28.0625H58.5811L63.6787 36.79ZM31.7656 18.4834H42.2559L37.0107 28.0625H58.5811L52.8936 18.4834H63.8555L58.5811 9.37402H37.0693L31.7656 18.4834Z" fill="#FF8B00"/>
<path d="M172.036 -1.90735e-06L180.822 17.8191H175.084L173.661 14.9467L165.815 14.8959L164.367 17.8191H158.629L167.415 -1.90735e-06H172.036ZM168.354 9.76111L171.122 9.78653L169.725 6.96496L168.354 9.76111Z" fill="white"/>
<path d="M152.686 -1.90735e-06H157.841V17.8191H152.686V11.4896H145.246V17.8191H140.116V-1.90735e-06H145.246V6.32947H152.686V-1.90735e-06Z" fill="white"/>
<path d="M138.236 4.04171C138.591 4.85513 138.769 5.7194 138.769 6.60908C138.769 7.52419 138.591 8.38845 138.236 9.20188C137.906 9.98988 137.423 10.7016 136.839 11.3117C136.23 11.9218 135.519 12.3793 134.732 12.7098C133.919 13.0656 133.056 13.2436 132.141 13.2436H126.276V17.8191H121.121V10.5745C121.121 10.4983 121.121 10.3966 121.121 10.3203V2.92325C121.121 2.89783 121.121 2.84699 121.121 2.79615V-1.90735e-06H123.914C123.965 -1.90735e-06 123.99 -1.90735e-06 124.041 -1.90735e-06H125.996H126.25H132.141C133.056 -1.90735e-06 133.919 0.177936 134.732 0.533809C135.519 0.864264 136.23 1.32182 136.839 1.93188C137.423 2.54195 137.906 3.2537 138.236 4.04171ZM132.141 8.08342C132.954 8.08342 133.614 7.42251 133.614 6.60908C133.614 5.82108 132.954 5.16017 132.141 5.16017H126.276V8.08342H132.141Z" fill="white"/>
<path d="M109.188 12.6335H120.006V17.7937H104.059V0.0254459H109.188V12.6335Z" fill="white"/>
<path d="M94.5165 0L103.303 17.8191H97.5637L96.1417 14.9467L88.2951 14.8959L86.8476 17.8191H81.1087L89.8949 0H94.5165ZM90.8344 9.76111L93.6023 9.78653L92.2057 6.96496L90.8344 9.76111Z" fill="white"/>
<path d="M181.404 35.2557V35.3319C181.404 36.1199 181.226 36.8825 180.896 37.5943C180.565 38.2552 180.134 38.8398 179.549 39.3482C178.457 40.3142 177.009 40.848 175.511 40.848H167.865C167.052 40.848 166.265 40.6955 165.528 40.3904C164.766 40.0854 164.131 39.6533 163.572 39.094C162.556 38.0772 161.972 36.73 161.997 35.3319V35.0777L167.128 35.1032V35.3319C167.128 35.3573 167.179 35.4082 167.204 35.459C167.281 35.5099 167.484 35.6878 167.89 35.6878L175.511 35.7132C175.866 35.7132 176.069 35.5607 176.146 35.4844C176.222 35.4336 176.247 35.3828 176.247 35.3573V35.2557C176.247 35.1794 176.044 34.9506 175.612 34.8998L167.281 34.1118C165.884 33.9847 164.588 33.4 163.598 32.4341C162.556 31.4173 161.997 30.0701 161.997 28.6466C161.997 27.8586 162.15 27.096 162.505 26.3842C162.81 25.7233 163.267 25.1387 163.826 24.6303C164.918 23.6644 166.366 23.1305 167.865 23.1305H175.485C176.323 23.1305 177.111 23.2831 177.848 23.5881C178.61 23.8931 179.27 24.3253 179.803 24.8845C180.845 25.9013 181.404 27.2485 181.378 28.6466V28.9008L176.247 28.8754V28.6466C176.247 28.6212 176.196 28.5703 176.171 28.5195C176.095 28.4686 175.892 28.2653 175.485 28.2653L167.865 28.2907C167.382 28.2907 167.128 28.5703 167.128 28.6466C167.128 28.6974 167.331 28.9516 167.763 28.977L176.095 29.765C177.492 29.8921 178.813 30.5022 179.778 31.4427C180.819 32.4849 181.404 33.8322 181.404 35.2557Z" fill="white"/>
<path d="M160.208 23.1051V40.8988H160.157H154.34L145.958 30.4514V40.8734H140.827V23.0797H140.878H146.669L155.051 33.5271V23.1051H160.208Z" fill="white"/>
<path d="M138.64 28.5195C139.097 29.638 139.325 30.7818 139.325 32.002C139.325 33.1967 139.097 34.3406 138.64 35.459C138.182 36.5012 137.547 37.4672 136.735 38.2806C135.922 39.094 134.957 39.7295 133.915 40.1871C132.797 40.6446 131.654 40.8734 130.435 40.8734H128.835C127.641 40.8734 126.473 40.6446 125.38 40.1871C124.313 39.7295 123.374 39.094 122.561 38.2806C121.748 37.4672 121.113 36.5012 120.656 35.459C120.199 34.3406 119.97 33.1967 119.97 32.002C119.97 30.7818 120.199 29.638 120.656 28.5195C121.113 27.4773 121.748 26.5114 122.561 25.6979C123.374 24.8845 124.313 24.249 125.38 23.7915C126.473 23.3339 127.641 23.1051 128.835 23.1051H130.435C131.654 23.1051 132.797 23.3339 133.915 23.7915C134.957 24.249 135.922 24.8845 136.735 25.6979C137.547 26.5114 138.182 27.4773 138.64 28.5195ZM130.435 35.7132C132.493 35.7132 134.169 34.0355 134.169 32.002C134.169 29.943 132.493 28.2653 130.435 28.2653H128.835C126.777 28.2653 125.101 29.943 125.101 32.002C125.101 34.0355 126.777 35.7132 128.835 35.7132H130.435Z" fill="white"/>
<path d="M113.342 23.0797H118.473V40.8988H113.342V23.0797Z" fill="white"/>
<path d="M101.406 35.7133H112.227V40.8734H96.2754V23.1052H101.406V35.7133Z" fill="white"/>
</svg>
